<?xml version="1.0" encoding="utf-8"?>
<!-- Generator: Adobe Illustrator 23.0.1, SVG Export Plug-In . SVG Version: 6.00 Build 0)  -->
<svg version="1.1" id="Layer_1" xmlns="http://www.w3.org/2000/svg" xmlns:xlink="http://www.w3.org/1999/xlink" x="0px" y="0px"
	 viewBox="0 0 234.51 103.23" style="enable-background:new 0 0 234.51 103.23;" xml:space="preserve">
<style type="text/css">
	.st0{fill:#FFFFFF;}
</style>
<g>
	<path class="st0" d="M41.23,62.19c0,0.47-0.19,1.08-0.57,1.83c-0.38,0.75-0.92,1.58-1.63,2.49c-0.71,0.91-1.56,1.85-2.56,2.84
		c-1,0.99-2.13,1.92-3.38,2.79c-0.69,0.5-1.59,1.1-2.69,1.78c-1.1,0.69-2.37,1.34-3.79,1.95c-1.43,0.61-3,1.13-4.71,1.55
		c-1.71,0.42-3.55,0.63-5.52,0.63c-2.3,0-4.29-0.44-5.96-1.31c-1.68-0.88-3.06-2.03-4.14-3.45c-1.08-1.42-1.89-3.03-2.41-4.83
		c-0.53-1.8-0.79-3.62-0.79-5.47c0-2.25,0.17-4.62,0.52-7.09c0.34-2.47,0.73-4.79,1.16-6.97c0.43-2.17,0.82-4.06,1.18-5.66
		c0.36-1.6,0.54-2.64,0.54-3.14c0-0.59,0.06-1.27,0.17-2.02c0.11-0.75,0.32-1.46,0.62-2.11c0.3-0.66,0.7-1.2,1.21-1.64
		c0.51-0.44,1.14-0.66,1.9-0.66c0.92,0,1.7,0.12,2.34,0.35c0.64,0.23,1.17,0.52,1.58,0.87c0.41,0.34,0.71,0.7,0.91,1.08
		c0.2,0.38,0.3,0.72,0.3,1.03c0,0.94-0.25,2.17-0.76,3.68c-0.51,1.52-1.07,3.25-1.68,5.19c-0.61,1.94-1.17,4.06-1.68,6.36
		c-0.51,2.3-0.76,4.72-0.76,7.25c0,1.25,0.07,2.57,0.22,3.97c0.15,1.39,0.46,2.67,0.94,3.83c0.48,1.16,1.17,2.12,2.09,2.89
		c0.92,0.77,2.17,1.15,3.75,1.15c1.31,0,2.67-0.19,4.07-0.59c1.4-0.39,2.75-0.89,4.07-1.5c1.31-0.61,2.55-1.27,3.7-1.99
		c1.15-0.72,2.15-1.39,3.01-2.02c0.85-0.66,1.63-1.27,2.34-1.85c0.71-0.58,1.36-1.09,1.95-1.53c0.59-0.44,1.12-0.79,1.58-1.06
		c0.46-0.27,0.87-0.4,1.23-0.4c0.76,0,1.22,0.19,1.4,0.56C41.14,61.34,41.23,61.75,41.23,62.19z M24.43,10.19
		c0,0.31-0.07,0.77-0.2,1.36c-0.13,0.59-0.3,1.24-0.52,1.92c-0.21,0.69-0.45,1.37-0.71,2.04c-0.26,0.67-0.51,1.24-0.74,1.71
		c-0.23,0.47-0.61,0.9-1.13,1.29c-0.53,0.39-1.1,0.73-1.73,1.01c-0.62,0.28-1.25,0.5-1.87,0.66c-0.62,0.16-1.13,0.23-1.53,0.23
		c-0.3,0-0.53-0.08-0.69-0.23c-0.16-0.16-0.29-0.36-0.37-0.61c-0.08-0.25-0.14-0.53-0.17-0.85c-0.03-0.31-0.07-0.61-0.1-0.89
		l-0.25-1.46c-0.07-0.28-0.16-0.52-0.27-0.73c-0.12-0.2-0.24-0.43-0.37-0.68c-0.13-0.25-0.25-0.56-0.35-0.92
		c-0.1-0.36-0.15-0.84-0.15-1.43c0-0.5,0.17-1.06,0.52-1.67c0.35-0.61,0.81-1.17,1.4-1.69c0.59-0.52,1.29-0.95,2.09-1.31
		c0.8-0.36,1.68-0.54,2.64-0.54c0.23,0,0.6,0.09,1.11,0.26c0.51,0.17,1.01,0.39,1.5,0.66c0.49,0.27,0.93,0.56,1.31,0.89
		C24.24,9.55,24.43,9.87,24.43,10.19z"/>
</g>
<g>
	<path class="st0" d="M43.52,59.74c-5.14,10.55-10.4,15.86-15.77,15.94c-2.17,0.03-3.94-1.13-5.31-3.5
		c-1.37-2.36-2.08-5.39-2.14-9.07c-0.11-7.45,1.96-14.89,6.22-22.31c4.26-7.43,8.63-11.17,13.12-11.24
		c2.58-0.04,4.43,0.88,5.54,2.75c1.39-9.38,2.21-15.25,2.47-17.59c0.55-4.35,1.02-7.24,1.4-8.67c0.39-1.43,1-2.55,1.82-3.34
		c0.83-0.8,1.55-1.2,2.16-1.21c1.04-0.02,1.85,0.57,2.42,1.76c0.57,1.19,0.87,2.7,0.9,4.53c0.01,0.8-0.4,3.1-1.25,6.91
		c-1.38,6.19-2.63,13.65-3.76,22.41c-1.13,8.75-1.65,15.71-1.57,20.87c0.08,4.94,0.89,7.39,2.45,7.37c0.8-0.01,1.64-0.32,2.54-0.94
		c0.89-0.58,1.52-0.88,1.89-0.88c1-0.01,1.52,0.79,1.54,2.42c0.03,1.97-0.96,3.95-2.97,5.93c-2.01,1.99-3.92,2.99-5.75,3.02
		c-1.97,0.03-3.5-1.42-4.61-4.34C43.78,67.63,43.32,64.02,43.52,59.74z M39.78,37.83c-2.68,0.04-5.44,2.93-8.27,8.68
		c-2.83,5.75-4.21,10.99-4.14,15.73c0.04,2.77,0.8,4.14,2.28,4.12c2.5-0.04,5.43-3.18,8.8-9.42c3.37-6.24,5.02-11.16,4.97-14.76
		c-0.02-1.08-0.36-2.09-1.03-3C41.71,38.27,40.84,37.81,39.78,37.83z"/>
	<path class="st0" d="M89.19,58.65c0.05,2.97-1.69,6.54-5.21,10.72c-3.52,4.18-7.54,6.3-12.04,6.36c-3.46,0.05-6.21-1.43-8.24-4.44
		c-2.03-3.01-3.09-7.23-3.17-12.65c-0.12-7.99,1.79-15.51,5.74-22.56c3.95-7.05,8.23-10.61,12.83-10.68
		c2.29-0.03,4.15,0.95,5.58,2.96c1.42,2.01,2.16,4.41,2.2,7.2c0.08,4.97-1.56,9.72-4.91,14.26c-3.35,4.54-7.69,7.71-13.01,9.5
		c-0.61,0.21-0.91,0.73-0.9,1.55c0.02,1.37,0.48,2.67,1.37,3.9c0.89,1.23,2.06,1.83,3.51,1.81c4.12-0.06,8.16-3.07,12.12-9.04
		c0.76-1.15,1.51-1.73,2.25-1.75C88.54,55.79,89.16,56.74,89.19,58.65z M68.46,51.37c3.22-0.96,6.04-2.93,8.47-5.9
		c2.42-2.97,3.62-5.66,3.58-8.06c-0.01-0.94-0.22-1.73-0.6-2.37c-0.39-0.64-0.88-0.95-1.47-0.94c-1.78,0.03-3.73,1.88-5.84,5.57
		C70.47,43.35,69.1,47.25,68.46,51.37z"/>
	<path class="st0" d="M107.25,62.24c-0.11-1.54-1.9-3.4-5.37-5.57c-4.26-2.76-6.99-5.16-8.19-7.18c-1.2-2.02-1.82-4.23-1.85-6.63
		c-0.08-5.05,1.89-9.5,5.9-13.34c4.01-3.84,7.77-5.79,11.3-5.84c3.46-0.05,5.22,2.02,5.29,6.22c0.02,1.11-0.36,2.12-1.14,3.01
		c-0.78,0.9-1.44,1.35-1.99,1.36c-0.23,0-0.63-0.19-1.21-0.58c-0.58-0.39-1.02-0.58-1.33-0.58c-1.82,0.03-3.82,0.91-5.98,2.66
		c-2.17,1.74-3.23,3.76-3.2,6.04c0.02,1.11,0.42,2.19,1.22,3.21c0.79,1.03,2.4,2.31,4.82,3.85c3.58,2.29,5.95,4.37,7.1,6.23
		c1.16,1.87,1.75,3.94,1.79,6.23c0.06,4.17-1.91,7.67-5.91,10.51c-4,2.84-8.52,4.3-13.56,4.37c-3.71,0.05-5.59-1.79-5.65-5.53
		c-0.02-1.37,0.35-2.54,1.11-3.53c0.76-0.98,1.63-1.48,2.59-1.49c0.39-0.01,1,0.19,1.82,0.57c0.83,0.42,1.59,0.62,2.28,0.61
		c1.93-0.03,3.94-0.49,6.03-1.37C105.22,64.58,106.59,63.5,107.25,62.24z"/>
	<path class="st0" d="M119.69,44.5l0,0.04c0.58-5.2,0.86-8.18,0.85-8.92c-0.03-2.11,0.27-3.89,0.92-5.32
		c0.64-1.44,1.56-2.16,2.75-2.18c1.39-0.02,2.48,0.42,3.28,1.32c0.79,0.9,1.2,1.92,1.21,3.07c0.02,1.14-0.33,3.5-1.03,7.08
		l-0.17,0.94c-1.04,5.52-1.65,10.03-1.82,13.51c-0.17,3.49-0.24,6.3-0.21,8.44c0.03,1.74,0.28,4.06,0.75,6.97
		c0.07,0.51,0.11,0.94,0.11,1.28c0.01,0.66-0.42,1.55-1.3,2.67c-0.87,1.13-1.82,1.7-2.85,1.71c-2.7,0.04-4.1-2.79-4.19-8.5
		c-0.07-4.85,0.33-10.77,1.2-17.74C119.39,47.33,119.55,45.87,119.69,44.5z M133.99,9.1c0.03,2.03-0.6,3.81-1.88,5.36
		c-1.29,1.55-2.41,2.33-3.38,2.34c-1.23,0.02-2.33-0.68-3.3-2.09c-0.97-1.41-1.47-2.83-1.49-4.26c-0.03-2.05,0.41-3.72,1.34-5.01
		c0.92-1.28,2.26-1.94,4.03-1.96c1.37-0.02,2.49,0.53,3.36,1.64C133.53,6.23,133.97,7.56,133.99,9.1z"/>
	<path class="st0" d="M155.28,59.31c-2.22,3.6-4.82,6.57-7.81,8.91c-2.99,2.34-5.58,3.53-7.77,3.56c-2.17,0.03-3.87-0.83-5.09-2.58
		s-1.86-4.18-1.91-7.29c-0.07-4.42,1.06-9.36,3.38-14.82c2.32-5.46,5.59-10.22,9.8-14.29c4.21-4.07,8.02-6.13,11.44-6.18
		c1.88-0.03,3.52,0.66,4.92,2.07c0.33,0.34,0.62,0.62,0.87,0.84c0.5,0.48,0.97,1.36,1.41,2.66c0.44,1.29,0.67,2.34,0.68,3.14
		c0.01,0.51-0.36,2.25-1.09,5.2c-0.75,3.07-1.26,6.03-1.54,8.91c-0.27,2.87-0.79,10.04-1.56,21.49c-0.69,9.97-2.57,17.28-5.66,21.92
		c-3.08,4.64-6.55,6.99-10.4,7.04c-4.04,0.06-7.98-1.78-11.84-5.5c-3.86-3.73-5.81-6.82-5.84-9.27c-0.03-2.17,0.71-3.26,2.22-3.29
		c0.59-0.01,1.81,0.8,3.66,2.43c4.74,4.21,8.77,6.29,12.11,6.25c2.54-0.04,4.64-2.29,6.29-6.75
		C153.22,79.29,154.46,71.14,155.28,59.31z M155.66,35.5c-1.51,0.02-3.48,1.31-5.9,3.87c-2.42,2.56-4.64,6-6.66,10.31
		c-2.02,4.31-3.01,7.88-2.97,10.7c0.02,1.48,0.42,2.22,1.2,2.21c2.64-0.04,5.24-1.57,7.8-4.59c2.56-3.02,4.61-6.48,6.16-10.39
		c1.55-3.9,2.31-6.86,2.28-8.85c-0.02-1-0.21-1.8-0.59-2.39C156.58,35.79,156.15,35.5,155.66,35.5z"/>
	<path class="st0" d="M194.58,65.59c-1.02-2.55-1.81-7.34-2.37-14.35c-0.56-7.3-1.62-10.94-3.18-10.92
		c-1.47,0.02-3.97,3.86-7.48,11.52c-3.51,7.66-5.66,13.31-6.44,16.94c-0.17,1.09-0.5,1.99-0.99,2.71c-0.49,0.72-0.98,1.08-1.47,1.09
		c-3.11,0.05-4.7-1.92-4.76-5.88c-0.02-1.34,0.24-4.4,0.78-9.17c0.7-6.18,0.99-13.72,0.85-22.62c-0.02-1.34,0.38-2.78,1.19-4.32
		c0.82-1.54,1.7-2.32,2.64-2.33c1.19-0.02,2.11,0.38,2.75,1.2c0.65,0.82,1,3.01,1.05,6.58c0.04,2.71-0.46,7.97-1.51,15.78
		c4.22-14.56,9.07-21.88,14.54-21.96c4.75-0.07,7.62,5.1,8.59,15.5c0.98,10.6,2.01,15.9,3.07,15.88c0.47-0.01,1.01-0.16,1.62-0.45
		c0.73-0.35,1.31-0.53,1.74-0.54c0.98-0.01,1.49,0.78,1.51,2.38c0.02,1.46-0.63,3.01-1.96,4.67s-3.01,2.5-5.06,2.53
		c-2.38,0.03-4.1-1.38-5.17-4.25L194.58,65.59z"/>
	<path class="st0" d="M223.2,60.55c-0.11-1.54-1.9-3.4-5.37-5.57c-4.26-2.76-6.99-5.16-8.19-7.18c-1.2-2.02-1.82-4.23-1.85-6.63
		c-0.08-5.05,1.89-9.5,5.9-13.34c4.01-3.84,7.77-5.79,11.3-5.84c3.46-0.05,5.22,2.02,5.29,6.22c0.02,1.11-0.36,2.12-1.14,3.01
		c-0.78,0.9-1.44,1.35-1.99,1.36c-0.23,0-0.63-0.19-1.21-0.58c-0.58-0.39-1.02-0.58-1.33-0.58c-1.82,0.03-3.82,0.91-5.98,2.66
		c-2.17,1.74-3.23,3.76-3.2,6.04c0.02,1.11,0.42,2.19,1.22,3.21c0.79,1.03,2.4,2.31,4.82,3.85c3.58,2.29,5.95,4.37,7.1,6.23
		c1.15,1.87,1.75,3.94,1.78,6.23c0.06,4.17-1.91,7.67-5.91,10.51c-4,2.84-8.52,4.3-13.56,4.37c-3.71,0.05-5.59-1.79-5.65-5.53
		c-0.02-1.37,0.35-2.54,1.11-3.53c0.76-0.98,1.63-1.48,2.59-1.49c0.39-0.01,1,0.19,1.82,0.57c0.83,0.42,1.59,0.62,2.28,0.61
		c1.93-0.03,3.94-0.49,6.03-1.37C221.17,62.89,222.54,61.82,223.2,60.55z"/>
</g>
</svg>
